<svg width="453" height="164" viewBox="0 0 453 164" fill="none" xmlns="http://www.w3.org/2000/svg">
<path d="M33.4658 129L37.9608 119L46.4515 129L50.447 122.5L56.4404 129L62.4338 122.5L71.9233 129H84.4095L100.891 94.5L113.377 26L121.868 81L135.353 88L143.844 81L154.332 92L166.818 88L175.309 59L181.802 68.5L193.289 3.00002L198.783 19L212.767 30L221.258 21.5L226.253 7.50001L232.246 21.5L244.732 30L258.217 76.5L267.707 37.5L278.695 26L290.182 37.5L298.672 19L304.166 30L319.15 40.5L336.131 37.5L348.617 21.5L366.597 81L379.083 88L389.572 68.5L395.565 81L408.551 88L414.045 106L422.036 84L435.521 68.5L443.512 88L451.004 59" stroke="#A9DFD8" stroke-width="3"/>
<path d="M38.4602 121.5L32.4668 133.5L452.502 134.5V59.5L444.012 92.5L435.022 71.5L423.534 84.5L414.045 109.5L407.552 89L394.566 82L389.572 71.5L379.583 89.5L365.099 82L348.118 24.5L337.13 38.5L318.65 42L303.167 31L298.672 22.5L290.681 40L278.694 28L269.205 38L258.717 81L243.234 31L231.247 22.5L226.252 11.5L222.756 22L212.767 32L197.784 20L193.788 8.99998L182.801 72L175.808 62.5L167.817 89L153.833 93.5L143.844 83L135.852 89.5L120.869 82L113.377 34.5L102.389 95L85.4082 130.5H71.4237L62.4336 124L56.4403 130.5L50.4469 125L46.4513 131L38.4602 121.5Z" fill="url(#paint0_linear_1_216)"/>
<path d="M32.0574 153.728H33.3642V158.841C33.3618 159.31 33.2624 159.714 33.0659 160.052C32.8694 160.388 32.5948 160.648 32.242 160.83C31.8916 161.01 31.4833 161.1 31.0169 161.1C30.5907 161.1 30.2072 161.024 29.8663 160.873C29.5278 160.719 29.2591 160.491 29.0602 160.191C28.8613 159.89 28.7619 159.516 28.7619 159.069H30.0723C30.0746 159.265 30.1172 159.434 30.2001 159.576C30.2853 159.718 30.4025 159.827 30.5517 159.903C30.7008 159.979 30.8725 160.017 31.0666 160.017C31.2773 160.017 31.456 159.973 31.6028 159.885C31.7496 159.795 31.8609 159.663 31.9366 159.488C32.0147 159.312 32.055 159.097 32.0574 158.841V153.728ZM36.3063 161.11C35.9606 161.11 35.6493 161.049 35.3723 160.926C35.0977 160.8 34.8799 160.616 34.7189 160.372C34.5603 160.128 34.481 159.827 34.481 159.47C34.481 159.162 34.5378 158.908 34.6515 158.706C34.7651 158.505 34.9202 158.344 35.1167 158.223C35.3132 158.103 35.5345 158.011 35.7807 157.95C36.0293 157.886 36.2862 157.84 36.5513 157.811C36.8709 157.778 37.1301 157.749 37.329 157.723C37.5279 157.694 37.6723 157.652 37.7623 157.595C37.8546 157.536 37.9007 157.444 37.9007 157.321V157.3C37.9007 157.033 37.8214 156.825 37.6628 156.679C37.5042 156.532 37.2757 156.458 36.9775 156.458C36.6626 156.458 36.4128 156.527 36.2282 156.664C36.0459 156.802 35.9228 156.964 35.8588 157.151L34.6586 156.98C34.7533 156.649 34.9095 156.372 35.1273 156.15C35.3451 155.925 35.6114 155.757 35.9263 155.645C36.2412 155.532 36.5892 155.475 36.9703 155.475C37.2331 155.475 37.4947 155.506 37.7551 155.567C38.0156 155.629 38.2535 155.73 38.4689 155.873C38.6844 156.012 38.8572 156.203 38.9874 156.444C39.12 156.686 39.1863 156.988 39.1863 157.35V161H37.9505V160.251H37.9078C37.8297 160.403 37.7196 160.545 37.5776 160.677C37.4379 160.807 37.2615 160.913 37.0485 160.993C36.8378 161.071 36.5904 161.11 36.3063 161.11ZM36.6401 160.166C36.8981 160.166 37.1219 160.115 37.3113 160.013C37.5007 159.909 37.6462 159.772 37.748 159.601C37.8522 159.431 37.9043 159.245 37.9043 159.044V158.401C37.8641 158.434 37.7954 158.465 37.6983 158.493C37.6036 158.522 37.4971 158.547 37.3787 158.568C37.2604 158.589 37.1432 158.608 37.0272 158.625C36.9112 158.641 36.8105 158.655 36.7253 158.667C36.5336 158.693 36.3619 158.736 36.2104 158.795C36.0589 158.854 35.9393 158.937 35.8517 159.044C35.7641 159.148 35.7203 159.283 35.7203 159.449C35.7203 159.685 35.8068 159.864 35.9796 159.985C36.1524 160.105 36.3726 160.166 36.6401 160.166ZM41.7644 157.804V161H40.4789V155.546H41.7076V156.473H41.7715C41.897 156.167 42.097 155.925 42.3716 155.745C42.6486 155.565 42.9907 155.475 43.3979 155.475C43.7743 155.475 44.1022 155.555 44.3816 155.716C44.6633 155.877 44.8811 156.11 45.035 156.416C45.1912 156.721 45.2682 157.092 45.2658 157.527V161H43.9803V157.726C43.9803 157.362 43.8856 157.076 43.6962 156.87C43.5092 156.664 43.2499 156.561 42.9185 156.561C42.6936 156.561 42.4935 156.611 42.3184 156.711C42.1455 156.808 42.0094 156.949 41.91 157.133C41.8129 157.318 41.7644 157.542 41.7644 157.804Z" fill="white"/>
<path d="M65.188 161V153.728H69.8471V154.832H66.5055V156.806H69.5275V157.911H66.5055V161H65.188ZM73.005 161.107C72.4581 161.107 71.9858 160.993 71.5881 160.766C71.1927 160.536 70.8885 160.212 70.6754 159.793C70.4624 159.372 70.3558 158.876 70.3558 158.305C70.3558 157.744 70.4624 157.252 70.6754 156.828C70.8909 156.402 71.1915 156.07 71.5774 155.833C71.9633 155.594 72.4167 155.475 72.9375 155.475C73.2737 155.475 73.5909 155.529 73.8892 155.638C74.1899 155.745 74.455 155.91 74.6847 156.135C74.9167 156.36 75.099 156.647 75.2315 156.995C75.3641 157.34 75.4304 157.752 75.4304 158.23V158.625H70.9595V157.758H74.1982C74.1958 157.512 74.1425 157.293 74.0384 157.101C73.9342 156.907 73.7886 156.754 73.6016 156.643C73.4169 156.532 73.2015 156.476 72.9553 156.476C72.6925 156.476 72.4616 156.54 72.2628 156.668C72.0639 156.793 71.9089 156.959 71.7976 157.165C71.6887 157.369 71.633 157.592 71.6307 157.836V158.593C71.6307 158.91 71.6887 159.182 71.8047 159.409C71.9207 159.634 72.0829 159.807 72.2912 159.928C72.4995 160.046 72.7434 160.105 73.0227 160.105C73.2098 160.105 73.379 160.079 73.5305 160.027C73.6821 159.973 73.8134 159.894 73.9247 159.789C74.036 159.685 74.12 159.556 74.1768 159.402L75.3771 159.537C75.3014 159.855 75.157 160.132 74.9439 160.368C74.7332 160.603 74.4633 160.785 74.1342 160.915C73.8052 161.043 73.4287 161.107 73.005 161.107ZM76.5748 161V153.728H77.8603V156.448H77.9135C77.9798 156.315 78.0733 156.174 78.1941 156.025C78.3148 155.874 78.4782 155.745 78.6841 155.638C78.8901 155.529 79.1529 155.475 79.4725 155.475C79.8939 155.475 80.2739 155.583 80.6124 155.798C80.9533 156.011 81.2232 156.327 81.4221 156.746C81.6233 157.163 81.7239 157.674 81.7239 158.28C81.7239 158.879 81.6257 159.388 81.4292 159.807C81.2327 160.226 80.9651 160.546 80.6266 160.766C80.2881 160.986 79.9045 161.096 79.476 161.096C79.1635 161.096 78.9043 161.044 78.6983 160.94C78.4924 160.836 78.3266 160.71 78.2012 160.564C78.0781 160.414 77.9822 160.274 77.9135 160.141H77.839V161H76.5748ZM77.8354 158.273C77.8354 158.626 77.8851 158.935 77.9846 159.2C78.0864 159.465 78.2319 159.672 78.4213 159.821C78.6131 159.968 78.8451 160.042 79.1174 160.042C79.4015 160.042 79.6394 159.966 79.8311 159.814C80.0229 159.66 80.1673 159.451 80.2644 159.186C80.3638 158.918 80.4135 158.614 80.4135 158.273C80.4135 157.935 80.365 157.634 80.2679 157.371C80.1709 157.108 80.0265 156.902 79.8347 156.753C79.6429 156.604 79.4038 156.529 79.1174 156.529C78.8427 156.529 78.6096 156.602 78.4178 156.746C78.226 156.891 78.0804 157.093 77.981 157.353C77.8839 157.614 77.8354 157.92 77.8354 158.273Z" fill="white"/>
<path d="M101.188 153.728H102.8L104.959 158.998H105.045L107.204 153.728H108.816V161H107.552V156.004H107.484L105.474 160.979H104.53L102.52 155.993H102.452V161H101.188V153.728ZM111.763 161.11C111.418 161.11 111.106 161.049 110.829 160.926C110.555 160.8 110.337 160.616 110.176 160.372C110.017 160.128 109.938 159.827 109.938 159.47C109.938 159.162 109.995 158.908 110.108 158.706C110.222 158.505 110.377 158.344 110.574 158.223C110.77 158.103 110.992 158.011 111.238 157.95C111.486 157.886 111.743 157.84 112.008 157.811C112.328 157.778 112.587 157.749 112.786 157.723C112.985 157.694 113.129 157.652 113.219 157.595C113.312 157.536 113.358 157.444 113.358 157.321V157.3C113.358 157.033 113.278 156.825 113.12 156.679C112.961 156.532 112.733 156.458 112.434 156.458C112.12 156.458 111.87 156.527 111.685 156.664C111.503 156.802 111.38 156.964 111.316 157.151L110.116 156.98C110.21 156.649 110.367 156.372 110.584 156.15C110.802 155.925 111.068 155.757 111.383 155.645C111.698 155.532 112.046 155.475 112.427 155.475C112.69 155.475 112.952 155.506 113.212 155.567C113.473 155.629 113.711 155.73 113.926 155.873C114.141 156.012 114.314 156.203 114.444 156.444C114.577 156.686 114.643 156.988 114.643 157.35V161H113.407V160.251H113.365C113.287 160.403 113.177 160.545 113.035 160.677C112.895 160.807 112.719 160.913 112.506 160.993C112.295 161.071 112.047 161.11 111.763 161.11ZM112.097 160.166C112.355 160.166 112.579 160.115 112.768 160.013C112.958 159.909 113.103 159.772 113.205 159.601C113.309 159.431 113.361 159.245 113.361 159.044V158.401C113.321 158.434 113.252 158.465 113.155 158.493C113.061 158.522 112.954 158.547 112.836 158.568C112.717 158.589 112.6 158.608 112.484 158.625C112.368 158.641 112.268 158.655 112.182 158.667C111.991 158.693 111.819 158.736 111.667 158.795C111.516 158.854 111.396 158.937 111.309 159.044C111.221 159.148 111.177 159.283 111.177 159.449C111.177 159.685 111.264 159.864 111.437 159.985C111.609 160.105 111.83 160.166 112.097 160.166ZM115.936 161V155.546H117.182V156.455H117.239C117.339 156.14 117.509 155.897 117.751 155.727C117.994 155.554 118.273 155.468 118.585 155.468C118.656 155.468 118.735 155.471 118.823 155.478C118.913 155.483 118.988 155.491 119.047 155.503V156.686C118.992 156.667 118.906 156.65 118.787 156.636C118.671 156.619 118.559 156.611 118.45 156.611C118.216 156.611 118.005 156.662 117.818 156.764C117.633 156.863 117.488 157.002 117.381 157.179C117.275 157.357 117.221 157.562 117.221 157.794V161H115.936Z" fill="white"/>
<path d="M139.122 161H137.716L140.276 153.728H141.903L144.466 161H143.06L141.118 155.219H141.061L139.122 161ZM139.168 158.149H143.003V159.207H139.168V158.149ZM145.368 163.046V155.546H146.632V156.448H146.706C146.773 156.315 146.866 156.174 146.987 156.025C147.108 155.874 147.271 155.745 147.477 155.638C147.683 155.529 147.946 155.475 148.265 155.475C148.687 155.475 149.067 155.583 149.405 155.798C149.746 156.011 150.016 156.327 150.215 156.746C150.416 157.163 150.517 157.674 150.517 158.28C150.517 158.879 150.418 159.388 150.222 159.807C150.025 160.226 149.758 160.546 149.419 160.766C149.081 160.986 148.697 161.096 148.269 161.096C147.956 161.096 147.697 161.044 147.491 160.94C147.285 160.836 147.119 160.71 146.994 160.564C146.871 160.414 146.775 160.274 146.706 160.141H146.653V163.046H145.368ZM146.628 158.273C146.628 158.626 146.678 158.935 146.777 159.2C146.879 159.465 147.025 159.672 147.214 159.821C147.406 159.968 147.638 160.042 147.91 160.042C148.194 160.042 148.432 159.966 148.624 159.814C148.816 159.66 148.96 159.451 149.057 159.186C149.157 158.918 149.206 158.614 149.206 158.273C149.206 157.935 149.158 157.634 149.061 157.371C148.964 157.108 148.819 156.902 148.627 156.753C148.436 156.604 148.197 156.529 147.91 156.529C147.636 156.529 147.402 156.602 147.211 156.746C147.019 156.891 146.873 157.093 146.774 157.353C146.677 157.614 146.628 157.92 146.628 158.273ZM151.618 161V155.546H152.864V156.455H152.921C153.02 156.14 153.191 155.897 153.432 155.727C153.676 155.554 153.954 155.468 154.267 155.468C154.338 155.468 154.417 155.471 154.505 155.478C154.595 155.483 154.669 155.491 154.728 155.503V156.686C154.674 156.667 154.587 156.65 154.469 156.636C154.353 156.619 154.241 156.611 154.132 156.611C153.897 156.611 153.687 156.662 153.5 156.764C153.315 156.863 153.169 157.002 153.063 157.179C152.956 157.357 152.903 157.562 152.903 157.794V161H151.618Z" fill="white"/>
<path d="M174.188 153.728H175.8L177.959 158.998H178.045L180.204 153.728H181.816V161H180.552V156.004H180.484L178.474 160.979H177.53L175.52 155.993H175.452V161H174.188V153.728ZM184.763 161.11C184.418 161.11 184.106 161.049 183.829 160.926C183.555 160.8 183.337 160.616 183.176 160.372C183.017 160.128 182.938 159.827 182.938 159.47C182.938 159.162 182.995 158.908 183.108 158.706C183.222 158.505 183.377 158.344 183.574 158.223C183.77 158.103 183.992 158.011 184.238 157.95C184.486 157.886 184.743 157.84 185.008 157.811C185.328 157.778 185.587 157.749 185.786 157.723C185.985 157.694 186.129 157.652 186.219 157.595C186.312 157.536 186.358 157.444 186.358 157.321V157.3C186.358 157.033 186.278 156.825 186.12 156.679C185.961 156.532 185.733 156.458 185.434 156.458C185.12 156.458 184.87 156.527 184.685 156.664C184.503 156.802 184.38 156.964 184.316 157.151L183.116 156.98C183.21 156.649 183.367 156.372 183.584 156.15C183.802 155.925 184.068 155.757 184.383 155.645C184.698 155.532 185.046 155.475 185.427 155.475C185.69 155.475 185.952 155.506 186.212 155.567C186.473 155.629 186.711 155.73 186.926 155.873C187.141 156.012 187.314 156.203 187.444 156.444C187.577 156.686 187.643 156.988 187.643 157.35V161H186.407V160.251H186.365C186.287 160.403 186.177 160.545 186.035 160.677C185.895 160.807 185.719 160.913 185.506 160.993C185.295 161.071 185.047 161.11 184.763 161.11ZM185.097 160.166C185.355 160.166 185.579 160.115 185.768 160.013C185.958 159.909 186.103 159.772 186.205 159.601C186.309 159.431 186.361 159.245 186.361 159.044V158.401C186.321 158.434 186.252 158.465 186.155 158.493C186.061 158.522 185.954 158.547 185.836 158.568C185.717 158.589 185.6 158.608 185.484 158.625C185.368 158.641 185.268 158.655 185.182 158.667C184.991 158.693 184.819 158.736 184.667 158.795C184.516 158.854 184.396 158.937 184.309 159.044C184.221 159.148 184.177 159.283 184.177 159.449C184.177 159.685 184.264 159.864 184.437 159.985C184.609 160.105 184.83 160.166 185.097 160.166ZM189.54 163.046C189.364 163.046 189.202 163.032 189.053 163.003C188.906 162.977 188.789 162.946 188.702 162.911L189 161.909C189.187 161.964 189.354 161.99 189.501 161.988C189.647 161.985 189.776 161.939 189.888 161.849C190.001 161.761 190.097 161.615 190.175 161.409L190.285 161.114L188.307 155.546H189.671L190.928 159.665H190.985L192.246 155.546H193.613L191.429 161.661C191.327 161.95 191.192 162.197 191.024 162.403C190.856 162.611 190.65 162.77 190.406 162.879C190.165 162.99 189.876 163.046 189.54 163.046Z" fill="white"/>
<path d="M216.057 153.728H217.364V158.841C217.362 159.31 217.262 159.714 217.066 160.052C216.869 160.388 216.595 160.648 216.242 160.83C215.892 161.01 215.483 161.1 215.017 161.1C214.591 161.1 214.207 161.024 213.866 160.873C213.528 160.719 213.259 160.491 213.06 160.191C212.861 159.89 212.762 159.516 212.762 159.069H214.072C214.075 159.265 214.117 159.434 214.2 159.576C214.285 159.718 214.403 159.827 214.552 159.903C214.701 159.979 214.872 160.017 215.067 160.017C215.277 160.017 215.456 159.973 215.603 159.885C215.75 159.795 215.861 159.663 215.937 159.488C216.015 159.312 216.055 159.097 216.057 158.841V153.728ZM222.213 158.706V155.546H223.499V161H222.252V160.031H222.195C222.072 160.336 221.87 160.586 221.588 160.78C221.309 160.974 220.964 161.071 220.555 161.071C220.197 161.071 219.881 160.992 219.607 160.833C219.334 160.672 219.121 160.439 218.968 160.134C218.814 159.826 218.737 159.454 218.737 159.019V155.546H220.022V158.82C220.022 159.166 220.117 159.44 220.306 159.644C220.496 159.847 220.744 159.949 221.052 159.949C221.241 159.949 221.425 159.903 221.602 159.811C221.78 159.718 221.926 159.581 222.039 159.399C222.155 159.214 222.213 158.983 222.213 158.706ZM226.106 157.804V161H224.821V155.546H226.049V156.473H226.113C226.239 156.167 226.439 155.925 226.713 155.745C226.99 155.565 227.333 155.475 227.74 155.475C228.116 155.475 228.444 155.555 228.723 155.716C229.005 155.877 229.223 156.11 229.377 156.416C229.533 156.721 229.61 157.092 229.608 157.527V161H228.322V157.726C228.322 157.362 228.227 157.076 228.038 156.87C227.851 156.664 227.592 156.561 227.26 156.561C227.035 156.561 226.835 156.611 226.66 156.711C226.487 156.808 226.351 156.949 226.252 157.133C226.155 157.318 226.106 157.542 226.106 157.804Z" fill="white"/>
<path d="M252.057 153.728H253.364V158.841C253.362 159.31 253.262 159.714 253.066 160.052C252.869 160.388 252.595 160.648 252.242 160.83C251.892 161.01 251.483 161.1 251.017 161.1C250.591 161.1 250.207 161.024 249.866 160.873C249.528 160.719 249.259 160.491 249.06 160.191C248.861 159.89 248.762 159.516 248.762 159.069H250.072C250.075 159.265 250.117 159.434 250.2 159.576C250.285 159.718 250.403 159.827 250.552 159.903C250.701 159.979 250.872 160.017 251.067 160.017C251.277 160.017 251.456 159.973 251.603 159.885C251.75 159.795 251.861 159.663 251.937 159.488C252.015 159.312 252.055 159.097 252.057 158.841V153.728ZM258.213 158.706V155.546H259.499V161H258.252V160.031H258.195C258.072 160.336 257.87 160.586 257.588 160.78C257.309 160.974 256.964 161.071 256.555 161.071C256.197 161.071 255.881 160.992 255.607 160.833C255.334 160.672 255.121 160.439 254.968 160.134C254.814 159.826 254.737 159.454 254.737 159.019V155.546H256.022V158.82C256.022 159.166 256.117 159.44 256.306 159.644C256.496 159.847 256.744 159.949 257.052 159.949C257.241 159.949 257.425 159.903 257.602 159.811C257.78 159.718 257.926 159.581 258.039 159.399C258.155 159.214 258.213 158.983 258.213 158.706ZM262.106 153.728V161H260.821V153.728H262.106Z" fill="white"/>
<path d="M283.122 161H281.716L284.276 153.728H285.903L288.466 161H287.06L285.118 155.219H285.061L283.122 161ZM283.168 158.149H287.003V159.207H283.168V158.149ZM292.844 158.706V155.546H294.13V161H292.883V160.031H292.826C292.703 160.336 292.501 160.586 292.219 160.78C291.94 160.974 291.595 161.071 291.186 161.071C290.828 161.071 290.512 160.992 290.238 160.833C289.965 160.672 289.752 160.439 289.598 160.134C289.444 159.826 289.368 159.454 289.368 159.019V155.546H290.653V158.82C290.653 159.166 290.748 159.44 290.937 159.644C291.127 159.847 291.375 159.949 291.683 159.949C291.872 159.949 292.056 159.903 292.233 159.811C292.411 159.718 292.556 159.581 292.67 159.399C292.786 159.214 292.844 158.983 292.844 158.706ZM297.824 163.159C297.362 163.159 296.965 163.097 296.634 162.971C296.303 162.848 296.036 162.682 295.835 162.474C295.634 162.266 295.494 162.035 295.416 161.782L296.574 161.501C296.626 161.608 296.702 161.713 296.801 161.817C296.9 161.924 297.034 162.011 297.202 162.08C297.373 162.151 297.587 162.186 297.845 162.186C298.21 162.186 298.511 162.098 298.751 161.92C298.99 161.745 299.109 161.456 299.109 161.054V160.02H299.045C298.979 160.153 298.882 160.289 298.754 160.429C298.629 160.568 298.462 160.685 298.253 160.78C298.047 160.875 297.788 160.922 297.476 160.922C297.057 160.922 296.677 160.824 296.336 160.627C295.997 160.429 295.727 160.133 295.526 159.74C295.327 159.344 295.228 158.85 295.228 158.255C295.228 157.656 295.327 157.151 295.526 156.739C295.727 156.325 295.998 156.011 296.339 155.798C296.68 155.583 297.06 155.475 297.479 155.475C297.799 155.475 298.062 155.529 298.268 155.638C298.476 155.745 298.642 155.874 298.765 156.025C298.888 156.174 298.981 156.315 299.045 156.448H299.116V155.546H300.384V161.089C300.384 161.556 300.273 161.941 300.05 162.247C299.828 162.552 299.523 162.781 299.138 162.932C298.752 163.084 298.314 163.159 297.824 163.159ZM297.834 159.914C298.107 159.914 298.339 159.847 298.53 159.715C298.722 159.582 298.868 159.392 298.967 159.143C299.067 158.895 299.116 158.596 299.116 158.248C299.116 157.905 299.067 157.604 298.967 157.346C298.87 157.088 298.726 156.888 298.534 156.746C298.345 156.602 298.111 156.529 297.834 156.529C297.548 156.529 297.309 156.604 297.117 156.753C296.925 156.902 296.781 157.107 296.684 157.368C296.587 157.626 296.538 157.919 296.538 158.248C296.538 158.582 296.587 158.874 296.684 159.125C296.783 159.374 296.929 159.568 297.121 159.708C297.315 159.845 297.553 159.914 297.834 159.914Z" fill="white"/>
<path d="M324.14 155.727C324.107 155.417 323.968 155.175 323.721 155.002C323.478 154.83 323.16 154.743 322.77 154.743C322.495 154.743 322.26 154.785 322.063 154.868C321.867 154.95 321.716 155.063 321.612 155.205C321.508 155.347 321.455 155.509 321.452 155.691C321.452 155.843 321.487 155.974 321.555 156.086C321.626 156.197 321.722 156.292 321.843 156.37C321.964 156.445 322.097 156.509 322.244 156.561C322.391 156.614 322.539 156.657 322.688 156.693L323.37 156.863C323.644 156.927 323.908 157.014 324.162 157.123C324.417 157.231 324.646 157.369 324.847 157.534C325.051 157.7 325.212 157.9 325.33 158.135C325.448 158.369 325.508 158.644 325.508 158.958C325.508 159.385 325.399 159.76 325.181 160.084C324.963 160.406 324.648 160.658 324.236 160.841C323.827 161.02 323.331 161.11 322.748 161.11C322.183 161.11 321.691 161.023 321.275 160.848C320.86 160.672 320.536 160.417 320.302 160.081C320.07 159.744 319.944 159.335 319.925 158.852H321.221C321.24 159.105 321.318 159.316 321.456 159.484C321.593 159.652 321.772 159.778 321.992 159.86C322.215 159.943 322.463 159.985 322.738 159.985C323.024 159.985 323.275 159.942 323.491 159.857C323.708 159.769 323.879 159.649 324.002 159.495C324.125 159.338 324.188 159.156 324.19 158.948C324.188 158.758 324.132 158.602 324.023 158.479C323.914 158.354 323.762 158.249 323.565 158.167C323.371 158.081 323.144 158.006 322.883 157.939L322.056 157.726C321.457 157.572 320.983 157.339 320.635 157.027C320.29 156.712 320.117 156.294 320.117 155.773C320.117 155.345 320.233 154.969 320.465 154.647C320.699 154.325 321.018 154.076 321.42 153.898C321.823 153.718 322.278 153.628 322.787 153.628C323.304 153.628 323.756 153.718 324.144 153.898C324.535 154.076 324.841 154.323 325.064 154.64C325.286 154.955 325.401 155.317 325.408 155.727H324.14ZM329.04 161.107C328.493 161.107 328.021 160.993 327.623 160.766C327.228 160.536 326.924 160.212 326.711 159.793C326.498 159.372 326.391 158.876 326.391 158.305C326.391 157.744 326.498 157.252 326.711 156.828C326.926 156.402 327.227 156.07 327.613 155.833C327.998 155.594 328.452 155.475 328.973 155.475C329.309 155.475 329.626 155.529 329.924 155.638C330.225 155.745 330.49 155.91 330.72 156.135C330.952 156.36 331.134 156.647 331.267 156.995C331.399 157.34 331.466 157.752 331.466 158.23V158.625H326.995V157.758H330.233C330.231 157.512 330.178 157.293 330.074 157.101C329.969 156.907 329.824 156.754 329.637 156.643C329.452 156.532 329.237 156.476 328.99 156.476C328.728 156.476 328.497 156.54 328.298 156.668C328.099 156.793 327.944 156.959 327.833 157.165C327.724 157.369 327.668 157.592 327.666 157.836V158.593C327.666 158.91 327.724 159.182 327.84 159.409C327.956 159.634 328.118 159.807 328.326 159.928C328.535 160.046 328.779 160.105 329.058 160.105C329.245 160.105 329.414 160.079 329.566 160.027C329.717 159.973 329.849 159.894 329.96 159.789C330.071 159.685 330.155 159.556 330.212 159.402L331.412 159.537C331.337 159.855 331.192 160.132 330.979 160.368C330.768 160.603 330.498 160.785 330.169 160.915C329.84 161.043 329.464 161.107 329.04 161.107ZM332.553 163.046V155.546H333.817V156.448H333.892C333.958 156.315 334.052 156.174 334.172 156.025C334.293 155.874 334.456 155.745 334.662 155.638C334.868 155.529 335.131 155.475 335.451 155.475C335.872 155.475 336.252 155.583 336.591 155.798C336.932 156.011 337.202 156.327 337.4 156.746C337.602 157.163 337.702 157.674 337.702 158.28C337.702 158.879 337.604 159.388 337.407 159.807C337.211 160.226 336.943 160.546 336.605 160.766C336.266 160.986 335.883 161.096 335.454 161.096C335.142 161.096 334.883 161.044 334.677 160.94C334.471 160.836 334.305 160.71 334.18 160.564C334.056 160.414 333.961 160.274 333.892 160.141H333.839V163.046H332.553ZM333.814 158.273C333.814 158.626 333.863 158.935 333.963 159.2C334.065 159.465 334.21 159.672 334.4 159.821C334.591 159.968 334.823 160.042 335.096 160.042C335.38 160.042 335.618 159.966 335.809 159.814C336.001 159.66 336.146 159.451 336.243 159.186C336.342 158.918 336.392 158.614 336.392 158.273C336.392 157.935 336.343 157.634 336.246 157.371C336.149 157.108 336.005 156.902 335.813 156.753C335.621 156.604 335.382 156.529 335.096 156.529C334.821 156.529 334.588 156.602 334.396 156.746C334.204 156.891 334.059 157.093 333.959 157.353C333.862 157.614 333.814 157.92 333.814 158.273Z" fill="white"/>
<path d="M363.687 157.364C363.687 158.148 363.54 158.819 363.246 159.377C362.955 159.934 362.557 160.36 362.053 160.656C361.551 160.952 360.982 161.1 360.345 161.1C359.708 161.1 359.138 160.952 358.633 160.656C358.131 160.358 357.734 159.93 357.44 159.374C357.149 158.815 357.003 158.145 357.003 157.364C357.003 156.58 357.149 155.91 357.44 155.354C357.734 154.795 358.131 154.368 358.633 154.072C359.138 153.776 359.708 153.628 360.345 153.628C360.982 153.628 361.551 153.776 362.053 154.072C362.557 154.368 362.955 154.795 363.246 155.354C363.54 155.91 363.687 156.58 363.687 157.364ZM362.362 157.364C362.362 156.812 362.276 156.347 362.103 155.968C361.932 155.587 361.696 155.3 361.393 155.105C361.09 154.909 360.74 154.811 360.345 154.811C359.95 154.811 359.6 154.909 359.297 155.105C358.994 155.3 358.756 155.587 358.584 155.968C358.413 156.347 358.328 156.812 358.328 157.364C358.328 157.916 358.413 158.382 358.584 158.763C358.756 159.142 358.994 159.43 359.297 159.626C359.6 159.82 359.95 159.917 360.345 159.917C360.74 159.917 361.09 159.82 361.393 159.626C361.696 159.43 361.932 159.142 362.103 158.763C362.276 158.382 362.362 157.916 362.362 157.364ZM367.255 161.107C366.71 161.107 366.243 160.987 365.852 160.748C365.464 160.509 365.164 160.179 364.953 159.757C364.745 159.334 364.641 158.846 364.641 158.294C364.641 157.74 364.748 157.252 364.961 156.828C365.174 156.402 365.474 156.07 365.863 155.833C366.253 155.594 366.715 155.475 367.248 155.475C367.69 155.475 368.082 155.556 368.423 155.72C368.766 155.881 369.04 156.109 369.243 156.405C369.447 156.699 369.563 157.042 369.591 157.435H368.363C368.313 157.172 368.194 156.953 368.007 156.778C367.823 156.601 367.575 156.512 367.265 156.512C367.002 156.512 366.772 156.583 366.573 156.725C366.374 156.864 366.219 157.066 366.108 157.328C365.999 157.591 365.944 157.906 365.944 158.273C365.944 158.645 365.999 158.964 366.108 159.232C366.217 159.497 366.369 159.702 366.566 159.846C366.765 159.988 366.998 160.059 367.265 160.059C367.455 160.059 367.624 160.024 367.773 159.953C367.925 159.879 368.051 159.774 368.153 159.637C368.255 159.499 368.325 159.333 368.363 159.136H369.591C369.56 159.522 369.447 159.864 369.25 160.162C369.054 160.458 368.786 160.69 368.448 160.858C368.109 161.024 367.712 161.107 367.255 161.107ZM373.371 155.546V156.54H370.235V155.546H373.371ZM371.009 154.239H372.295V159.36C372.295 159.533 372.321 159.665 372.373 159.757C372.427 159.847 372.498 159.909 372.586 159.942C372.673 159.975 372.77 159.992 372.877 159.992C372.957 159.992 373.031 159.986 373.097 159.974C373.166 159.962 373.218 159.952 373.253 159.942L373.47 160.947C373.401 160.971 373.303 160.997 373.175 161.025C373.05 161.054 372.896 161.07 372.714 161.075C372.392 161.084 372.102 161.036 371.844 160.929C371.586 160.82 371.381 160.652 371.229 160.425C371.08 160.198 371.007 159.914 371.009 159.573V154.239Z" fill="white"/>
<path d="M399.165 153.728V161H397.993L394.566 156.047H394.506V161H393.188V153.728H394.367L397.79 158.685H397.854V153.728H399.165ZM402.923 161.107C402.39 161.107 401.928 160.99 401.538 160.755C401.147 160.521 400.844 160.193 400.629 159.772C400.415 159.35 400.309 158.858 400.309 158.294C400.309 157.731 400.415 157.237 400.629 156.814C400.844 156.39 401.147 156.061 401.538 155.826C401.928 155.592 402.39 155.475 402.923 155.475C403.455 155.475 403.917 155.592 404.308 155.826C404.698 156.061 405 156.39 405.213 156.814C405.429 157.237 405.536 157.731 405.536 158.294C405.536 158.858 405.429 159.35 405.213 159.772C405 160.193 404.698 160.521 404.308 160.755C403.917 160.99 403.455 161.107 402.923 161.107ZM402.93 160.077C403.219 160.077 403.46 159.998 403.654 159.839C403.848 159.678 403.993 159.463 404.087 159.193C404.184 158.923 404.233 158.622 404.233 158.291C404.233 157.957 404.184 157.655 404.087 157.385C403.993 157.113 403.848 156.896 403.654 156.735C403.46 156.574 403.219 156.494 402.93 156.494C402.634 156.494 402.388 156.574 402.191 156.735C401.997 156.896 401.851 157.113 401.754 157.385C401.66 157.655 401.612 157.957 401.612 158.291C401.612 158.622 401.66 158.923 401.754 159.193C401.851 159.463 401.997 159.678 402.191 159.839C402.388 159.998 402.634 160.077 402.93 160.077ZM411.314 155.546L409.371 161H407.951L406.009 155.546H407.379L408.633 159.598H408.69L409.947 155.546H411.314Z" fill="white"/>
<path d="M433.653 161H431.188V153.728H433.702C434.424 153.728 435.045 153.873 435.563 154.164C436.084 154.453 436.484 154.869 436.763 155.411C437.043 155.953 437.182 156.602 437.182 157.357C437.182 158.114 437.041 158.766 436.76 159.31C436.48 159.855 436.077 160.272 435.549 160.564C435.023 160.855 434.391 161 433.653 161ZM432.506 159.86H433.589C434.095 159.86 434.518 159.768 434.856 159.583C435.195 159.396 435.449 159.118 435.62 158.749C435.79 158.377 435.876 157.913 435.876 157.357C435.876 156.801 435.79 156.339 435.62 155.972C435.449 155.603 435.197 155.327 434.863 155.145C434.532 154.96 434.12 154.868 433.628 154.868H432.506V159.86ZM440.792 161.107C440.245 161.107 439.773 160.993 439.375 160.766C438.98 160.536 438.676 160.212 438.463 159.793C438.249 159.372 438.143 158.876 438.143 158.305C438.143 157.744 438.249 157.252 438.463 156.828C438.678 156.402 438.979 156.07 439.365 155.833C439.75 155.594 440.204 155.475 440.725 155.475C441.061 155.475 441.378 155.529 441.676 155.638C441.977 155.745 442.242 155.91 442.472 156.135C442.704 156.36 442.886 156.647 443.019 156.995C443.151 157.34 443.218 157.752 443.218 158.23V158.625H438.747V157.758H441.985C441.983 157.512 441.93 157.293 441.825 157.101C441.721 156.907 441.576 156.754 441.389 156.643C441.204 156.532 440.989 156.476 440.742 156.476C440.48 156.476 440.249 156.54 440.05 156.668C439.851 156.793 439.696 156.959 439.585 157.165C439.476 157.369 439.42 157.592 439.418 157.836V158.593C439.418 158.91 439.476 159.182 439.592 159.409C439.708 159.634 439.87 159.807 440.078 159.928C440.287 160.046 440.53 160.105 440.81 160.105C440.997 160.105 441.166 160.079 441.318 160.027C441.469 159.973 441.601 159.894 441.712 159.789C441.823 159.685 441.907 159.556 441.964 159.402L443.164 159.537C443.088 159.855 442.944 160.132 442.731 160.368C442.52 160.603 442.25 160.785 441.921 160.915C441.592 161.043 441.216 161.107 440.792 161.107ZM446.684 161.107C446.14 161.107 445.672 160.987 445.282 160.748C444.893 160.509 444.594 160.179 444.383 159.757C444.175 159.334 444.071 158.846 444.071 158.294C444.071 157.74 444.177 157.252 444.39 156.828C444.603 156.402 444.904 156.07 445.292 155.833C445.683 155.594 446.145 155.475 446.677 155.475C447.12 155.475 447.512 155.556 447.853 155.72C448.196 155.881 448.469 156.109 448.673 156.405C448.877 156.699 448.993 157.042 449.021 157.435H447.792C447.743 157.172 447.624 156.953 447.437 156.778C447.252 156.601 447.005 156.512 446.695 156.512C446.432 156.512 446.201 156.583 446.002 156.725C445.804 156.864 445.649 157.066 445.537 157.328C445.428 157.591 445.374 157.906 445.374 158.273C445.374 158.645 445.428 158.964 445.537 159.232C445.646 159.497 445.799 159.702 445.995 159.846C446.194 159.988 446.427 160.059 446.695 160.059C446.884 160.059 447.054 160.024 447.203 159.953C447.354 159.879 447.481 159.774 447.583 159.637C447.685 159.499 447.754 159.333 447.792 159.136H449.021C448.99 159.522 448.877 159.864 448.68 160.162C448.484 160.458 448.216 160.69 447.877 160.858C447.539 161.024 447.141 161.107 446.684 161.107Z" fill="white"/>
<path d="M3.66562 10.0997C3.19213 10.0997 2.76837 10.0109 2.39431 9.83339C2.02026 9.65346 1.72315 9.40725 1.50298 9.09475C1.28517 8.78225 1.16917 8.42477 1.15497 8.02231H2.43338C2.45705 8.3206 2.58607 8.56445 2.82045 8.75384C3.05482 8.94087 3.33655 9.03438 3.66562 9.03438C3.92367 9.03438 4.15331 8.9752 4.35454 8.85682C4.55577 8.73845 4.71439 8.57392 4.83039 8.36322C4.9464 8.15252 5.00321 7.91222 5.00085 7.64234C5.00321 7.36771 4.94521 7.12387 4.82684 6.9108C4.70847 6.69773 4.5463 6.53083 4.34034 6.41009C4.13437 6.28698 3.89763 6.22543 3.63011 6.22543C3.41231 6.22306 3.19805 6.26331 2.98735 6.34617C2.77665 6.42903 2.60975 6.53793 2.48664 6.67287L1.29701 6.47756L1.67698 2.72756H5.89573V3.82841H2.76718L2.55767 5.75668H2.60028C2.73522 5.59806 2.9258 5.46667 3.17201 5.36251C3.41822 5.25597 3.68811 5.2027 3.98167 5.2027C4.42201 5.2027 4.815 5.30687 5.16065 5.5152C5.50629 5.72117 5.77855 6.00526 5.97741 6.36748C6.17627 6.72969 6.27571 7.14399 6.27571 7.61038C6.27571 8.09096 6.16444 8.51947 5.9419 8.89589C5.72173 9.26994 5.41515 9.56468 5.02215 9.78012C4.63153 9.99319 4.17935 10.0997 3.66562 10.0997ZM10.1535 10.1388C9.56879 10.1388 9.0669 9.99082 8.64786 9.69489C8.2312 9.3966 7.91041 8.96691 7.68551 8.40583C7.46297 7.84238 7.3517 7.16412 7.3517 6.37103C7.35407 5.57794 7.46652 4.90323 7.68906 4.34688C7.91396 3.78817 8.23475 3.36203 8.65142 3.06847C9.07045 2.77491 9.57116 2.62813 10.1535 2.62813C10.7359 2.62813 11.2366 2.77491 11.6557 3.06847C12.0747 3.36203 12.3955 3.78817 12.618 4.34688C12.8429 4.90559 12.9554 5.58031 12.9554 6.37103C12.9554 7.16648 12.8429 7.84593 12.618 8.40938C12.3955 8.97046 12.0747 9.39896 11.6557 9.69489C11.239 9.99082 10.7383 10.1388 10.1535 10.1388ZM10.1535 9.02728C10.6081 9.02728 10.9668 8.80356 11.2295 8.35611C11.4947 7.9063 11.6273 7.24461 11.6273 6.37103C11.6273 5.79338 11.5669 5.30805 11.4462 4.91506C11.3254 4.52207 11.155 4.22614 10.9348 4.02728C10.7146 3.82605 10.4542 3.72543 10.1535 3.72543C9.70137 3.72543 9.34389 3.95034 9.0811 4.40015C8.81832 4.84759 8.68574 5.50455 8.68338 6.37103C8.68101 6.95105 8.73901 7.43874 8.85738 7.8341C8.97812 8.22946 9.14857 8.52775 9.36874 8.72898C9.58892 8.92785 9.85052 9.02728 10.1535 9.02728ZM16.8235 10.1388C16.2387 10.1388 15.7368 9.99082 15.3178 9.69489C14.9011 9.3966 14.5803 8.96691 14.3554 8.40583C14.1329 7.84238 14.0216 7.16412 14.0216 6.37103C14.024 5.57794 14.1364 4.90323 14.359 4.34688C14.5839 3.78817 14.9047 3.36203 15.3213 3.06847C15.7404 2.77491 16.2411 2.62813 16.8235 2.62813C17.4059 2.62813 17.9066 2.77491 18.3256 3.06847C18.7446 3.36203 19.0654 3.78817 19.288 4.34688C19.5129 4.90559 19.6253 5.58031 19.6253 6.37103C19.6253 7.16648 19.5129 7.84593 19.288 8.40938C19.0654 8.97046 18.7446 9.39896 18.3256 9.69489C17.9089 9.99082 17.4082 10.1388 16.8235 10.1388ZM16.8235 9.02728C17.278 9.02728 17.6367 8.80356 17.8995 8.35611C18.1646 7.9063 18.2972 7.24461 18.2972 6.37103C18.2972 5.79338 18.2368 5.30805 18.1161 4.91506C17.9953 4.52207 17.8249 4.22614 17.6047 4.02728C17.3845 3.82605 17.1241 3.72543 16.8235 3.72543C16.3713 3.72543 16.0138 3.95034 15.751 4.40015C15.4882 4.84759 15.3557 5.50455 15.3533 6.37103C15.3509 6.95105 15.4089 7.43874 15.5273 7.8341C15.648 8.22946 15.8185 8.52775 16.0387 8.72898C16.2588 8.92785 16.5204 9.02728 16.8235 9.02728Z" fill="white"/>
<path d="M1.00582 36.6509V35.6033L4.09176 30.7276H4.96534V32.219H4.43267L2.35525 35.5109V35.5678H6.66278V36.6509H1.00582ZM4.47528 38.0003V36.3313L4.48948 35.8625V30.7276H5.73238V38.0003H4.47528ZM10.4856 38.1388C9.90082 38.1388 9.39893 37.9908 8.9799 37.6949C8.56323 37.3966 8.24244 36.9669 8.01754 36.4058C7.795 35.8424 7.68373 35.1641 7.68373 34.371C7.6861 33.5779 7.79855 32.9032 8.02109 32.3469C8.24599 31.7882 8.56678 31.362 8.98345 31.0685C9.40248 30.7749 9.90319 30.6281 10.4856 30.6281C11.068 30.6281 11.5687 30.7749 11.9877 31.0685C12.4067 31.362 12.7275 31.7882 12.9501 32.3469C13.175 32.9056 13.2874 33.5803 13.2874 34.371C13.2874 35.1665 13.175 35.8459 12.9501 36.4094C12.7275 36.9705 12.4067 37.399 11.9877 37.6949C11.571 37.9908 11.0703 38.1388 10.4856 38.1388ZM10.4856 37.0273C10.9401 37.0273 11.2988 36.8036 11.5616 36.3561C11.8267 35.9063 11.9593 35.2446 11.9593 34.371C11.9593 33.7934 11.8989 33.3081 11.7782 32.9151C11.6575 32.5221 11.487 32.2261 11.2668 32.0273C11.0467 31.826 10.7862 31.7254 10.4856 31.7254C10.0334 31.7254 9.67592 31.9503 9.41313 32.4001C9.15035 32.8476 9.01777 33.5046 9.01541 34.371C9.01304 34.951 9.07104 35.4387 9.18941 35.8341C9.31015 36.2295 9.48061 36.5278 9.70078 36.729C9.92095 36.9278 10.1825 37.0273 10.4856 37.0273ZM17.1555 38.1388C16.5707 38.1388 16.0689 37.9908 15.6498 37.6949C15.2332 37.3966 14.9124 36.9669 14.6875 36.4058C14.4649 35.8424 14.3537 35.1641 14.3537 34.371C14.356 33.5779 14.4685 32.9032 14.691 32.3469C14.9159 31.7882 15.2367 31.362 15.6534 31.0685C16.0724 30.7749 16.5731 30.6281 17.1555 30.6281C17.7379 30.6281 18.2386 30.7749 18.6576 31.0685C19.0767 31.362 19.3974 31.7882 19.62 32.3469C19.8449 32.9056 19.9573 33.5803 19.9573 34.371C19.9573 35.1665 19.8449 35.8459 19.62 36.4094C19.3974 36.9705 19.0767 37.399 18.6576 37.6949C18.241 37.9908 17.7403 38.1388 17.1555 38.1388ZM17.1555 37.0273C17.61 37.0273 17.9687 36.8036 18.2315 36.3561C18.4966 35.9063 18.6292 35.2446 18.6292 34.371C18.6292 33.7934 18.5689 33.3081 18.4481 32.9151C18.3274 32.5221 18.1569 32.2261 17.9367 32.0273C17.7166 31.826 17.4562 31.7254 17.1555 31.7254C16.7033 31.7254 16.3458 31.9503 16.0831 32.4001C15.8203 32.8476 15.6877 33.5046 15.6853 34.371C15.683 34.951 15.741 35.4387 15.8593 35.8341C15.9801 36.2295 16.1505 36.5278 16.3707 36.729C16.5909 36.9278 16.8525 37.0273 17.1555 37.0273Z" fill="white"/>
<path d="M3.7473 66.0997C3.23593 66.0997 2.78139 66.0121 2.38366 65.8369C1.9883 65.6617 1.6758 65.4179 1.44616 65.1054C1.21652 64.7929 1.0946 64.4319 1.08039 64.0223H2.41562C2.42746 64.2188 2.49256 64.3904 2.61093 64.5372C2.7293 64.6816 2.88674 64.7941 3.08323 64.8746C3.27973 64.9551 3.4999 64.9953 3.74374 64.9953C4.00416 64.9953 4.23499 64.9503 4.43622 64.8604C4.63745 64.768 4.79488 64.6402 4.90852 64.4769C5.02215 64.3135 5.07779 64.1253 5.07542 63.9122C5.07779 63.6921 5.02097 63.4979 4.90497 63.3298C4.78896 63.1617 4.62088 63.0304 4.40071 62.9357C4.1829 62.841 3.92012 62.7936 3.61235 62.7936H2.9696V61.778H3.61235C3.86567 61.778 4.08702 61.7342 4.27642 61.6466C4.46818 61.559 4.61851 61.4359 4.72741 61.2773C4.83631 61.1163 4.88958 60.9305 4.88721 60.7197C4.88958 60.5138 4.84341 60.335 4.74872 60.1835C4.65639 60.0296 4.52499 59.9101 4.35454 59.8249C4.18645 59.7396 3.98877 59.697 3.7615 59.697C3.53896 59.697 3.333 59.7373 3.1436 59.8178C2.95421 59.8983 2.80151 60.0131 2.68551 60.1622C2.5695 60.309 2.50795 60.4842 2.50085 60.6878H1.23309C1.24256 60.2806 1.35975 59.9231 1.58465 59.6153C1.81193 59.3052 2.11496 59.0637 2.49374 58.8909C2.87253 58.7157 3.29749 58.6281 3.7686 58.6281C4.25392 58.6281 4.67533 58.7193 5.03281 58.9016C5.39266 59.0815 5.67083 59.3242 5.86732 59.6296C6.06382 59.9349 6.16207 60.2723 6.16207 60.6416C6.16444 61.0512 6.0437 61.3945 5.79985 61.6715C5.55838 61.9484 5.24114 62.1296 4.84815 62.2148V62.2716C5.35951 62.3426 5.75132 62.532 6.02357 62.8398C6.2982 63.1452 6.43432 63.5251 6.43196 63.9797C6.43196 64.3869 6.31595 64.7515 6.08394 65.0734C5.8543 65.393 5.53707 65.644 5.13224 65.8263C4.72978 66.0086 4.26813 66.0997 3.7473 66.0997ZM10.3391 66.1388C9.75434 66.1388 9.25245 65.9908 8.83341 65.6949C8.41674 65.3966 8.09596 64.9669 7.87105 64.4058C7.64852 63.8424 7.53725 63.1641 7.53725 62.371C7.53961 61.5779 7.65207 60.9032 7.8746 60.3469C8.09951 59.7882 8.4203 59.362 8.83696 59.0685C9.256 58.7749 9.75671 58.6281 10.3391 58.6281C10.9215 58.6281 11.4222 58.7749 11.8412 59.0685C12.2603 59.362 12.581 59.7882 12.8036 60.3469C13.0285 60.9056 13.1409 61.5803 13.1409 62.371C13.1409 63.1665 13.0285 63.8459 12.8036 64.4094C12.581 64.9705 12.2603 65.399 11.8412 65.6949C11.4246 65.9908 10.9238 66.1388 10.3391 66.1388ZM10.3391 65.0273C10.7936 65.0273 11.1523 64.8036 11.4151 64.3561C11.6802 63.9063 11.8128 63.2446 11.8128 62.371C11.8128 61.7934 11.7524 61.3081 11.6317 60.9151C11.511 60.5221 11.3405 60.2261 11.1203 60.0273C10.9002 59.826 10.6398 59.7254 10.3391 59.7254C9.88691 59.7254 9.52943 59.9503 9.26665 60.4001C9.00387 60.8476 8.87129 61.5046 8.86892 62.371C8.86655 62.951 8.92456 63.4387 9.04293 63.8341C9.16367 64.2295 9.33412 64.5278 9.55429 64.729C9.77446 64.9278 10.0361 65.0273 10.3391 65.0273ZM17.009 66.1388C16.4243 66.1388 15.9224 65.9908 15.5033 65.6949C15.0867 65.3966 14.7659 64.9669 14.541 64.4058C14.3184 63.8424 14.2072 63.1641 14.2072 62.371C14.2095 61.5779 14.322 60.9032 14.5445 60.3469C14.7694 59.7882 15.0902 59.362 15.5069 59.0685C15.9259 58.7749 16.4266 58.6281 17.009 58.6281C17.5914 58.6281 18.0921 58.7749 18.5111 59.0685C18.9302 59.362 19.251 59.7882 19.4735 60.3469C19.6984 60.9056 19.8109 61.5803 19.8109 62.371C19.8109 63.1665 19.6984 63.8459 19.4735 64.4094C19.251 64.9705 18.9302 65.399 18.5111 65.6949C18.0945 65.9908 17.5938 66.1388 17.009 66.1388ZM17.009 65.0273C17.4636 65.0273 17.8222 64.8036 18.085 64.3561C18.3502 63.9063 18.4827 63.2446 18.4827 62.371C18.4827 61.7934 18.4224 61.3081 18.3016 60.9151C18.1809 60.5221 18.0104 60.2261 17.7903 60.0273C17.5701 59.826 17.3097 59.7254 17.009 59.7254C16.5568 59.7254 16.1994 59.9503 15.9366 60.4001C15.6738 60.8476 15.5412 61.5046 15.5388 62.371C15.5365 62.951 15.5945 63.4387 15.7128 63.8341C15.8336 64.2295 16.004 64.5278 16.2242 64.729C16.4444 64.9278 16.706 65.0273 17.009 65.0273Z" fill="white"/>
<path d="M1.13721 94.0003V93.0486L3.66207 90.5735C3.90355 90.3296 4.10478 90.113 4.26576 89.9236C4.42675 89.7342 4.54749 89.5507 4.62798 89.3732C4.70847 89.1956 4.74872 89.0062 4.74872 88.805C4.74872 88.5754 4.69663 88.3789 4.59247 88.2155C4.4883 88.0498 4.34507 87.9219 4.16278 87.832C3.98049 87.742 3.77334 87.697 3.54133 87.697C3.30222 87.697 3.0927 87.7468 2.91278 87.8462C2.73285 87.9432 2.59318 88.0817 2.49374 88.2617C2.39668 88.4416 2.34815 88.6558 2.34815 88.9044H1.0946C1.0946 88.4428 1.19995 88.0415 1.41065 87.7006C1.62135 87.3597 1.91136 87.0957 2.28068 86.9087C2.65236 86.7217 3.0785 86.6281 3.55909 86.6281C4.04678 86.6281 4.47528 86.7193 4.8446 86.9016C5.21392 87.0839 5.50037 87.3336 5.70397 87.6509C5.90994 87.9681 6.01292 88.3303 6.01292 88.7375C6.01292 89.0098 5.96084 89.2773 5.85667 89.5401C5.7525 89.8029 5.56903 90.0941 5.30624 90.4137C5.04583 90.7333 4.68006 91.1203 4.20894 91.5749L2.95539 92.8497V92.8995H6.12301V94.0003H1.13721ZM10.0364 94.1388C9.4516 94.1388 8.94971 93.9908 8.53068 93.6949C8.11401 93.3966 7.79322 92.9669 7.56832 92.4058C7.34578 91.8424 7.23451 91.1641 7.23451 90.371C7.23688 89.578 7.34933 88.9032 7.57187 88.3469C7.79678 87.7882 8.11756 87.362 8.53423 87.0685C8.95326 86.7749 9.45397 86.6281 10.0364 86.6281C10.6187 86.6281 11.1195 86.7749 11.5385 87.0685C11.9575 87.362 12.2783 87.7882 12.5008 88.3469C12.7258 88.9056 12.8382 89.5803 12.8382 90.371C12.8382 91.1665 12.7258 91.8459 12.5008 92.4094C12.2783 92.9705 11.9575 93.399 11.5385 93.6949C11.1218 93.9908 10.6211 94.1388 10.0364 94.1388ZM10.0364 93.0273C10.4909 93.0273 10.8496 92.8036 11.1124 92.3561C11.3775 91.9063 11.5101 91.2446 11.5101 90.371C11.5101 89.7934 11.4497 89.3081 11.329 88.9151C11.2082 88.5221 11.0378 88.2262 10.8176 88.0273C10.5974 87.8261 10.337 87.7254 10.0364 87.7254C9.58418 87.7254 9.2267 87.9504 8.96392 88.4002C8.70113 88.8476 8.56856 89.5046 8.56619 90.371C8.56382 90.9511 8.62182 91.4388 8.74019 91.8341C8.86093 92.2295 9.03139 92.5278 9.25156 92.729C9.47173 92.9279 9.73333 93.0273 10.0364 93.0273ZM16.7063 94.1388C16.1215 94.1388 15.6196 93.9908 15.2006 93.6949C14.7839 93.3966 14.4631 92.9669 14.2382 92.4058C14.0157 91.8424 13.9044 91.1641 13.9044 90.371C13.9068 89.578 14.0193 88.9032 14.2418 88.3469C14.4667 87.7882 14.7875 87.362 15.2041 87.0685C15.6232 86.7749 16.1239 86.6281 16.7063 86.6281C17.2887 86.6281 17.7894 86.7749 18.2084 87.0685C18.6274 87.362 18.9482 87.7882 19.1708 88.3469C19.3957 88.9056 19.5081 89.5803 19.5081 90.371C19.5081 91.1665 19.3957 91.8459 19.1708 92.4094C18.9482 92.9705 18.6274 93.399 18.2084 93.6949C17.7917 93.9908 17.291 94.1388 16.7063 94.1388ZM16.7063 93.0273C17.1608 93.0273 17.5195 92.8036 17.7823 92.3561C18.0474 91.9063 18.18 91.2446 18.18 90.371C18.18 89.7934 18.1196 89.3081 17.9989 88.9151C17.8782 88.5221 17.7077 88.2262 17.4875 88.0273C17.2674 87.8261 17.0069 87.7254 16.7063 87.7254C16.2541 87.7254 15.8966 87.9504 15.6338 88.4002C15.3711 88.8476 15.2385 89.5046 15.2361 90.371C15.2337 90.9511 15.2917 91.4388 15.4101 91.8341C15.5309 92.2295 15.7013 92.5278 15.9215 92.729C16.1416 92.9279 16.4032 93.0273 16.7063 93.0273Z" fill="white"/>
<path d="M4.59531 114.728V122H3.27784V116.01H3.23522L1.53423 117.096V115.889L3.34176 114.728H4.59531ZM9.13011 122.139C8.54535 122.139 8.04346 121.991 7.62443 121.695C7.20776 121.397 6.88697 120.967 6.66207 120.406C6.43953 119.842 6.32826 119.164 6.32826 118.371C6.33063 117.578 6.44308 116.903 6.66562 116.347C6.89053 115.788 7.21131 115.362 7.62798 115.068C8.04701 114.775 8.54772 114.628 9.13011 114.628C9.71249 114.628 10.2132 114.775 10.6322 115.068C11.0513 115.362 11.3721 115.788 11.5946 116.347C11.8195 116.906 11.932 117.58 11.932 118.371C11.932 119.166 11.8195 119.846 11.5946 120.409C11.3721 120.97 11.0513 121.399 10.6322 121.695C10.2156 121.991 9.71486 122.139 9.13011 122.139ZM9.13011 121.027C9.58465 121.027 9.94332 120.804 10.2061 120.356C10.4713 119.906 10.6038 119.245 10.6038 118.371C10.6038 117.793 10.5435 117.308 10.4227 116.915C10.302 116.522 10.1315 116.226 9.91136 116.027C9.69119 115.826 9.43077 115.725 9.13011 115.725C8.67793 115.725 8.32045 115.95 8.05767 116.4C7.79488 116.848 7.66231 117.505 7.65994 118.371C7.65757 118.951 7.71557 119.439 7.83394 119.834C7.95468 120.229 8.12514 120.528 8.34531 120.729C8.56548 120.928 8.82708 121.027 9.13011 121.027ZM15.8 122.139C15.2153 122.139 14.7134 121.991 14.2943 121.695C13.8777 121.397 13.5569 120.967 13.332 120.406C13.1095 119.842 12.9982 119.164 12.9982 118.371C13.0006 117.578 13.113 116.903 13.3355 116.347C13.5604 115.788 13.8812 115.362 14.2979 115.068C14.7169 114.775 15.2176 114.628 15.8 114.628C16.3824 114.628 16.8831 114.775 17.3022 115.068C17.7212 115.362 18.042 115.788 18.2645 116.347C18.4894 116.906 18.6019 117.58 18.6019 118.371C18.6019 119.166 18.4894 119.846 18.2645 120.409C18.042 120.97 17.7212 121.399 17.3022 121.695C16.8855 121.991 16.3848 122.139 15.8 122.139ZM15.8 121.027C16.2546 121.027 16.6132 120.804 16.876 120.356C17.1412 119.906 17.2738 119.245 17.2738 118.371C17.2738 117.793 17.2134 117.308 17.0926 116.915C16.9719 116.522 16.8015 116.226 16.5813 116.027C16.3611 115.826 16.1007 115.725 15.8 115.725C15.3479 115.725 14.9904 115.95 14.7276 116.4C14.4648 116.848 14.3322 117.505 14.3299 118.371C14.3275 118.951 14.3855 119.439 14.5039 119.834C14.6246 120.229 14.7951 120.528 15.0152 120.729C15.2354 120.928 15.497 121.027 15.8 121.027Z" fill="white"/>
<path d="M10.3254 150.139C9.74067 150.139 9.23878 149.991 8.81974 149.695C8.40307 149.397 8.08229 148.967 7.85738 148.406C7.63485 147.842 7.52358 147.164 7.52358 146.371C7.52594 145.578 7.6384 144.903 7.86093 144.347C8.08584 143.788 8.40663 143.362 8.82329 143.068C9.24233 142.775 9.74304 142.628 10.3254 142.628C10.9078 142.628 11.4085 142.775 11.8276 143.068C12.2466 143.362 12.5674 143.788 12.7899 144.347C13.0148 144.906 13.1273 145.58 13.1273 146.371C13.1273 147.166 13.0148 147.846 12.7899 148.409C12.5674 148.97 12.2466 149.399 11.8276 149.695C11.4109 149.991 10.9102 150.139 10.3254 150.139ZM10.3254 149.027C10.78 149.027 11.1386 148.804 11.4014 148.356C11.6666 147.906 11.7991 147.245 11.7991 146.371C11.7991 145.793 11.7388 145.308 11.618 144.915C11.4973 144.522 11.3268 144.226 11.1067 144.027C10.8865 143.826 10.6261 143.725 10.3254 143.725C9.87324 143.725 9.51576 143.95 9.25298 144.4C8.9902 144.848 8.85762 145.505 8.85525 146.371C8.85288 146.951 8.91089 147.439 9.02926 147.834C9.15 148.229 9.32045 148.528 9.54062 148.729C9.76079 148.928 10.0224 149.027 10.3254 149.027Z" fill="white"/>
<defs>
<linearGradient id="paint0_linear_1_216" x1="243.234" y1="-1.00001" x2="242.233" y2="131.5" gradientUnits="userSpaceOnUse">
<stop stop-color="#A9DFD8"/>
<stop offset="1" stop-color="#A9DFD8" stop-opacity="0.01"/>
</linearGradient>
</defs>
</svg>
